<?xml version="1.0" encoding="utf-8"?>
<!-- Generator: Adobe Illustrator 18.1.0, SVG Export Plug-In . SVG Version: 6.00 Build 0)  -->
<svg version="1.1" id="Layer_1" xmlns="http://www.w3.org/2000/svg" xmlns:xlink="http://www.w3.org/1999/xlink" x="0px" y="0px"
	 viewBox="0 180.3 612 430.9" enable-background="new 0 180.3 612 430.9" xml:space="preserve">
<g>
	<path fill="#FFFFFF" d="M434.8,410.3c-10.2,0-18.7,0-27.9,0c-2.1-5.7-0.6-11.2,0-16.7c0.9-9.2-1.2-12.5-9.8-14.8
		c-11.3-3-22.3,3.2-25.9,14.3c-5.3,16.5-1.2,30.6,11,42.5c8.1,7.9,16.8,15.2,25,23c7.1,6.8,14.5,13.4,20.7,20.9
		c12.2,14.7,14.1,32.3,11.2,50.4c-0.7,4.1-3.6,8.5-6.8,11.3c-21.1,18.5-44.1,34.5-69.4,46.6c-13.9,6.7-28.3,7.9-42.5-0.1
		c-14.5-8.2-17.7-20.1-8.8-34.1c1.8-2.9,3.8-5.6,5.8-8.4c9.6-13,19.2-26,29.6-40.1c7.3,0,16.2,0,25.3,0c3.5,6.5,1.6,12.2-0.8,17.8
		c-2.3,5.3-4.1,10.6-1.4,18c2.4,0.7,6.2,3,9.2,2.3c8-1.9,16.1-4.2,23.4-7.9c8.3-4.2,10.6-12.2,9.2-21.3c-1.6-9.9-6.8-17.4-14.5-23.5
		c-11.8-9.4-23.7-18.8-35.1-28.7c-6.5-5.7-12.7-11.9-18.1-18.7c-9.3-11.5-13.1-24.6-8.4-39.3c0.6-1.8,1.1-3.6,1.5-5.5
		c8.4-36.2,38.3-44.2,64.7-39.8c9.8,1.6,19,4.8,27.3,10.4c7.7,5.2,10.8,12.4,9.6,21.4C437.7,396.9,436.2,403.1,434.8,410.3z"/>
	<path fill="#FFFFFF" d="M237.3,371.9c31-10.1,62.3-15.2,95.6-14.3c-2.6,9.4-4.7,17.3-6.8,25c-20,4.4-39.4,8.7-59.2,13.1
		c-0.5,21.4,3.6,40.8,8.2,61c15.4,2.5,30.5,0.6,46.2,0.8c0.9,2.9,1.8,5.7,2.4,8.5c0.7,2.9,1,5.9,1.6,9.3c-7.6,3.2-15,0.9-22.4,0.8
		c-7.5-0.1-15,0-23.5,0c-2.9,23.7-19.2,39.8-35.7,58.5c20.2,2.8,38.1,5.2,57.6,7.9c-5.2,5.3-9.9,9.8-14.2,14.6
		c-4.3,4.8-8.1,9.9-12.9,15.8c-25.1-7.9-50.4-15.9-77.3-24.4c4-6,6.6-10.9,10.1-15.2c7-8.4,14.3-16.7,21.9-24.5
		c8.2-8.4,12.8-18.6,17.2-29.1c3.2-7.7,2-15.6,0.2-23.4c-3.3-14.4-7.2-28.6-9.3-43.2c-1.8-12.2-4.7-24.6-1.4-37
		C236,375.1,236.5,374,237.3,371.9z"/>
	<path fill="#FFFFFF" d="M151,353.8c-8.4,1.2-15.4,2.2-23.8,3.4c-1.3-10-3.3-19.2-3.7-28.5c-0.6-16-5.2-31.1-9-46.5
		c-0.7-2.9-1.1-5.9-1.2-8.9c-0.2-5.6-0.2-11.2-0.2-16.8c0-6.4,0-12.8,0-19c5.9-4.8,10.9-9.4,16.5-13.2c2.6-1.8,6.3-2.6,9.5-2.8
		c14.3-0.9,28.7-1.6,43-1.9c5.6-0.1,11.3,0.9,16.8,1.8c1.5,0.2,2.8,1.9,4.9,3.5c-2,2.1-3.3,4.1-5.1,5.1c-7.4,4.1-9,10.7-8.4,18.4
		c0.4,5.6,1,11.2,1.4,16.1c-4.5,6.7-14.2,6.1-16.4,14.9c1.7,0.6,3.4,1.3,5.1,1.7c12.1,2.4,16.3,11.5,18,22c2,12.3,3.1,24.7,4.6,37
		c0.2,1.8,0,3.7,0,6.8c-7,1-13.9,2.1-21.9,3.2c-1.6-4.6-3.6-8.7-4.2-12.9c-1.3-8.9-2.1-18-2.8-27c-0.8-10.8-4-14.2-14.5-14.4
		c-4.8-0.1-9.5,0.4-15.1,0.7C146.8,316.2,148.8,334.4,151,353.8z M166.2,265c0-11.6,0-22.3,0-34.3c-6,0-11.2-0.4-16.3,0.1
		c-8.3,0.9-12.3,4.8-12.2,13.4c0.1,10.4,1.3,20.8,2.1,31.3C155.8,273.3,160.8,271.2,166.2,265z"/>
	<path fill="#FFFFFF" d="M310.2,223.3c-3.5,2.9-6.3,5.8-9.7,7.9c-5,3.2-7.4,7.4-6.7,13.3c0.9,7.4,1.6,14.9,3.1,22.3
		c1.4,7,4.1,13.7,5.7,20.7c4.5,19.9-4,40.4-20.3,48.5c-12.7,6.2-26.1,7-39.7,3.6c-10.9-2.7-18-10-20.3-20.7
		c-4.3-19.9-7.8-39.9-11.3-60c-0.7-4-0.5-8.3-0.3-12.4c0.3-6.9,3.6-12.1,9.8-15.5c8.3-4.5,16.6-8.9,24.9-13.5
		c14.2-7.8,29.6-8.7,45.1-7C297.9,211.3,305,214.4,310.2,223.3z M277.3,226.7c-2.7-4.4-6.3-3.8-9.5-3c-5.8,1.5-11.5,3.6-17.2,5.5
		c-13.2,4.4-17,13.4-15,26.8c2.6,17.8,6.7,35.5,10.5,53.1c1.6,7.4,6,11.1,13.2,12c6.6,0.8,11.5-1.9,15.3-7.5
		c4.7-6.8,5.2-14,3.4-21.6c-2.3-9.9-5.3-19.7-7.2-29.6c-1.4-7.4-2.9-15.1-2-22.4C269.3,235.5,274.1,231.4,277.3,226.7z"/>
	<path fill="#FFFFFF" d="M56.1,299.8c13.6-3.3,26.1-3.6,38.4-3.6c5.6,8,10.7,37.9,10.6,60.8c-12.2,5.2-25.4,7.7-38.8,8.9
		c-4.5,0.4-9.1,0-13.6,0.2c-14.3,0.5-24.1-6.6-28.7-19.5c-3.2-9.1-4.7-19-6-28.6c-1-7.1-2.1-13.8-5.1-20.6c-4-8.7-7.3-18.2-3.1-28.3
		c1.4-3.3,0.9-7.4,1-11.1c0.1-6,0-12,0-19c3.9-2.4,7.3-5.6,11.3-7c23.2-8.1,47.2-9.4,71.5-6.7c1.1,0.1,2.2,0.5,3.3,0.9
		c0.7,0.3,1.2,0.9,2.2,1.6c-2.2,4.4-5.4,8.8-6.6,13.6c-1.1,4.6-0.2,9.7-0.2,14.8c-8.1,3-15.5,1.8-23.8,1c-1.1-7.7-2.1-15.5-3.3-23.9
		c-9.7-3.1-18.3-1.5-26.3,4.9c-3.1,7.5-4.5,15.1-3.6,23.2c0.3,2.2,0.4,4.7-0.4,6.7c-4.1,10.5-0.4,19.9,3.1,29.6
		c1.9,5.2,3.1,10.7,4.2,16.2c1.1,5.5,1.2,11.3,2.6,16.8c3.5,13.4,12.1,18.5,25.5,15.4c2.5-0.6,4.8-1.8,8.3-3.2
		c-1.4-12.7-2.8-25.3-4.1-36.8C69,300.7,61.5,305.8,56.1,299.8z"/>
	<path fill="#FFFFFF" d="M455.7,385.5c0.5-5.6,0.9-10.7,1.4-15.5c10.9-1.6,78.8,9.9,100.9,16.9c-0.4,4-0.8,8.3-1.3,14.1
		c-11.7-1.8-22.3-3.5-34.1-5.3c-6,26.5-6.7,52.8-5.7,79c1,25.9,3.5,51.8,5.3,78.4c-10.5,2.1-20.2,4.6-31,2.9
		c-0.2-3.6-0.3-7-0.5-10.3c-1-15.1-1.3-30.2-3.3-45.2c-3.2-23.4-2.3-46.7-0.4-70.1c1-12.7,2.3-25.4,3.6-39.4
		C478.9,389.3,468.3,387.5,455.7,385.5z"/>
	<path fill="#FFFFFF" d="M416.8,221.5c-3.4,2.8-6.4,6.2-10.2,8.3c-7.6,4.2-11.1,10.4-9.8,18.6c1,6.6,1.8,13.8,5,19.4
		c12.9,22.6-0.5,57.2-35,59.7c-6,0.4-12.1,0.6-18.1-0.2c-11.4-1.5-19.6-7.5-23-18.9c-1-3.2-1.8-6.5-2.5-9.8
		c-2.9-12.5-5.6-25-8.7-37.4c-2.1-8.3-1.8-16.4,1.2-25c2.8-1.9,5.8-4.2,9-6.1c6.3-3.7,11.8-8.1,15.1-14.8c2.6-5.2,7.2-8,12.3-9.1
		c15.6-3.5,31.3-4.4,47.1-1.4C407.8,206.5,413.9,210.8,416.8,221.5z M389.7,222.7c-2.1-2.7-3.1-4.9-4.8-5.9c-7.1-4.4-13.7-2.4-20,2
		c-6.5,4.5-12.9,9.1-19.3,13.8c-2.1,1.5-4.7,3.5-5.2,5.7c-1.9,7.6-3.9,15.2-1.2,23.3c3.7,11,6.6,22.3,9.9,33.5
		c2,6.4,5.3,11.7,12.6,13c7.2,1.2,14.5-2.2,17.5-9.5c1.9-4.6,2.7-10.2,2.2-15.2c-0.5-5.1-2.8-10.2-5.1-14.9
		c-4.9-9.9-5.6-20.2-4.1-31.1C378,232.5,383.6,227.8,389.7,222.7z"/>
	<path fill="#FFFFFF" d="M105.2,516c5.3-7.9,9.8-15.2,14.8-22.1c6-8.3,12.7-16,18.6-24.4c2.8-3.9,4.7-8.5,6.5-13
		c5.3-13.2,5.7-26.2,0-39.6c-3.5-8.3-5.6-17.1-8.3-25.7c7.8-3.4,70.9-13,80.4-12.1c0.7,7.5,1.5,15.2,2.4,24.1
		c-16.3,1.8-31.5,3.5-47.6,5.3c1.5,13.9,7.1,25.8,9.9,39c14.9,5.4,30.8,3.7,46.2,8c0.2,4.2,0.4,7.8,0.6,12.4
		c-17.7,2.3-34.1-4.3-49.2-4c-15.8,21.1-30.6,41-46,61.6C123.9,524.6,115.3,520.4,105.2,516z"/>
	<path fill="#FFFFFF" d="M438.4,258.9c6,3.4,11.9,6.8,17.9,10.1c1.6,0.9,3.4,1.4,5.1,2c8.7-6.3,12.4-15.1,12.5-24.7
		c0.1-8.5,3.9-13.5,10.8-17c7.2-3.6,10.3-9.3,10.5-17.3c0.1-4,1.5-8,2.4-12.6c8.1,0,15.5,0,23,0c-0.7,5.9-1.3,11.4-2.1,17
		c-0.8,5.7-4,9.9-9,12.3c-8.1,3.9-11.5,10-11.8,18.9c-0.2,6.8-2.4,13.3-8.4,17.9c-4.6,3.5-5.8,8.6-5.1,14.3c1.3,9.9-1,19.4-3.3,29.7
		c-9.3,2.4-18.3,4.6-29,4.6c-0.4-6-1.2-11.5-1-17c0.4-12.2-4.8-21-15.3-26.8c-7.2-4-14.6-7.8-22.4-11.9c-1-6.9-1.9-13.5-2.7-19
		c5.9-8.5,16.5-9.5,20.3-19.5c-2.3-5.1-4.8-10.9-7.9-17.8c7.9-1.3,15.2-0.8,23.9-0.8c3,5.8,6.3,11.9,9.9,18.8
		c-3.8,3.4-6.6,6.5-9.8,8.7C433.2,238,431.8,242.2,438.4,258.9z"/>
	<path fill="#FFFFFF" d="M533.6,200.6c2.5-0.6,4.3-1.4,6.1-1.4c20-0.3,40.1-0.5,60.1-0.6c0.9,0,1.7,0.9,4.4,2.4
		c-8.3,2.9-15.4,1.6-22.1,2.4c-6.7,0.8-13.5,1.2-21,1.9c0.4,6.3,0.7,12.1,1.1,18.8c-3.1,2.5-6.1,5.4-9.5,7.6
		c-13.6,8.9-15.7,14.8-10.6,32.4c6.7,0.2,13.8,0.2,20.9,0.6c6.8,0.4,14-1.7,20.4,3.5c-11.8,0.8-23.7,1.6-36.5,2.5
		c1.7,6.5,6.2,6.5,10.5,6.4c9.8-0.3,19.7-0.8,29.5-1c2.4-0.1,4.9,0.6,7.3,2.2c-21,2.6-41.9,5.3-63,7.9c-16.9-21.8-18-19.7-15.5-46.1
		c3.6-2.6,8-6.1,12.7-9c6.7-4,9.7-9,7.4-17C534.7,210.2,534.5,206,533.6,200.6z"/>
</g>
</svg>
